<?xml version="1.0" encoding="UTF-8" standalone="no"?>
<svg
   xmlns:dc="http://purl.org/dc/elements/1.1/"
   xmlns:cc="http://creativecommons.org/ns#"
   xmlns:rdf="http://www.w3.org/1999/02/22-rdf-syntax-ns#"
   xmlns:svg="http://www.w3.org/2000/svg"
   xmlns="http://www.w3.org/2000/svg"
   version="1.1"
   id="svg3653"
   viewBox="0 0 492.20518 156.39223"
   height="156.39223"
   width="492.20517">
  <defs
     id="defs3655" />
  <metadata
     id="metadata3658">
    <rdf:RDF>
      <cc:Work
         rdf:about="">
        <dc:format>image/svg+xml</dc:format>
        <dc:type
           rdf:resource="http://purl.org/dc/dcmitype/StillImage" />
        <dc:title></dc:title>
      </cc:Work>
    </rdf:RDF>
  </metadata>
  <g
     transform="translate(-6.9393434,-551.53342)"
     id="layer1">
    <g
       id="g3554"
       transform="matrix(0.77537045,0,0,0.77537045,-35.085735,-19.061692)">
      <path
         style="fill:#00acc0"
         id="path3556"
         d="m 273.7,735.9 -172,0 c -29.7,0 -47.5,35.6 -47.5,35.6 l 0,11.9 0,148.3 0,5.9 166.1,0 53.4,0 415.3,0 0,-201.7 -415.3,0 z"
         class="st1" />
      <g
         id="g3558">
        <g
           style="opacity:0.12999998"
           id="g3560"
           class="st4">
          <path
             id="path3562"
             d="m 368,784.9 c 1.2,3.4 3.3,9.8 6.5,19.3 3.2,9.4 5.5,16.5 7,21.2 1.5,4.7 3.5,10.8 5.8,18.3 2.4,7.5 4.5,14.4 6.3,20.7 1.8,6.2 3.6,12.4 5.1,18.4 0.3,1.3 0,2.5 -0.9,3.6 -0.9,1.1 -2,1.8 -3.4,1.9 -8.2,0.5 -16.4,0.9 -24.7,1.2 -1.8,0 -3.1,-0.9 -3.6,-2.8 -1.3,-4 -2.6,-8.2 -4.1,-12.6 -9.6,0.1 -19.3,0.1 -29,0 -1.4,4.4 -2.7,8.6 -3.9,12.6 -0.6,1.8 -1.8,2.8 -3.8,2.8 -8.3,-0.3 -16.5,-0.7 -24.8,-1.2 -1.4,-0.1 -2.5,-0.7 -3.4,-1.9 -0.9,-1.2 -1.1,-2.4 -0.7,-3.6 1.6,-6 3.2,-12.2 5,-18.4 1.8,-6.2 3.9,-13.1 6.3,-20.7 2.4,-7.5 4.4,-13.6 5.9,-18.3 1.5,-4.7 3.8,-11.7 7,-21.2 3.2,-9.4 5.3,-15.9 6.3,-19.3 0.7,-1.9 2,-3 3.9,-3.1 11,-0.2 22,-0.2 33,0 2.3,0.2 3.6,1.2 4.2,3.1 z m -28.2,67.7 c 4.8,0 10,-2.4 14.9,-2.4 -0.1,-0.2 -2.5,-9.4 -7.2,-27.6 -0.5,2 -1.2,4.9 -2.3,8.7 -1,3.7 -1.9,7.2 -2.8,10.2 -0.7,3.1 -1.9,8.3 -2.6,11.1 z" />
          <path
             id="path3564"
             d="m 497.4,888.3 c 0.7,1.3 0.6,2.6 -0.2,4 -0.8,1.4 -2,2.2 -3.6,2.4 -9.3,0.7 -18.6,1.1 -27.9,1.3 -1.6,0 -2.7,-0.7 -3.5,-2.2 -4.7,-9.7 -10.9,-22.4 -18.8,-38.1 0,12.1 0.1,24.1 0.3,36.2 0,1.2 -0.4,2.1 -1.2,2.9 -0.8,0.8 -1.7,1.2 -2.8,1.2 -8.8,-0.3 -17.5,-0.7 -26.1,-1.3 -1.2,-0.1 -2.2,-0.6 -3,-1.5 -0.8,-0.9 -1.3,-1.8 -1.4,-2.9 -1.8,-32.1 -1.8,-64.2 0,-96.3 0.1,-1.2 0.6,-2.2 1.4,-3 0.8,-0.8 1.8,-1.3 3,-1.4 14.2,-1.1 28.4,-1.6 42.6,-1.5 10,0 18.3,3.1 25,9.2 7.1,6.5 10.8,15.2 10.9,26 0.1,8.4 -1.3,14.7 -4.2,19 -2.9,4.3 -7.2,7.6 -12.8,9.9 9.4,15.1 16.8,27.2 22.3,36.1 z m -53.9,-74 c -0.1,6.6 1.1,14.5 1.1,21.1 2.4,0 6.2,-1.3 8.6,-1.3 0,0 1.7,-0.9 3.2,-2.8 1.5,-1.9 2.2,-4.1 2.2,-6.7 0,-2.6 -0.8,-4.9 -2.3,-7.1 -1.5,-2.1 -3.4,-3.2 -5.6,-3.2 -2.5,0 -4.9,0 -7.2,0 z" />
          <path
             id="path3566"
             d="m 535.2,895.9 c -8.5,1.4 -17,1.4 -25.5,0 -1.1,-0.2 -2,-0.8 -2.8,-1.8 -0.8,-1 -1.2,-2 -1.2,-3.1 -0.7,-32.1 -0.7,-64.2 0,-96.3 0,-1.2 0.4,-2.2 1.2,-3.1 0.8,-0.9 1.8,-1.5 2.8,-1.7 8.6,-1.4 17.1,-1.4 25.5,0 1.1,0.2 2,0.8 2.8,1.7 0.8,0.9 1.2,2 1.2,3.1 0.7,32.1 0.7,64.2 0,96.3 0,1.1 -0.4,2.1 -1.2,3.1 -0.8,1 -1.8,1.6 -2.8,1.8 z" />
          <path
             id="path3568"
             d="m 621.7,791.5 c 1.2,3.4 3.3,9.8 6.5,19.3 3.2,9.4 5.5,16.5 7,21.2 1.5,4.7 3.5,10.8 5.8,18.3 2.4,7.5 4.5,14.4 6.3,20.7 1.8,6.2 3.6,12.4 5.1,18.4 0.3,1.3 0,2.5 -0.9,3.6 -0.9,1.2 -2,1.8 -3.4,1.9 -8.2,0.5 -16.4,0.9 -24.7,1.2 -1.8,0 -3.1,-0.9 -3.6,-2.8 -1.3,-4 -2.6,-8.2 -4.1,-12.6 -9.6,0.1 -19.3,0.1 -29,0 -1.4,4.4 -2.7,8.6 -3.9,12.6 -0.6,1.8 -1.8,2.8 -3.8,2.8 -8.3,-0.3 -16.5,-0.7 -24.8,-1.2 -1.4,-0.1 -2.5,-0.7 -3.4,-1.9 -0.9,-1.2 -1.1,-2.4 -0.7,-3.6 1.6,-6 3.2,-12.2 5,-18.4 1.8,-6.2 3.9,-13.1 6.3,-20.7 2.4,-7.5 4.4,-13.6 5.9,-18.3 1.5,-4.7 3.8,-11.7 7,-21.2 3.2,-9.4 5.3,-15.9 6.4,-19.3 0.7,-1.9 2,-3 3.9,-3.1 11,-0.2 22,-0.2 33,0 2.2,0.2 3.5,1.2 4.1,3.1 z m -28.8,67.6 c 4.8,0 10.7,-2.4 15.5,-2.4 -0.1,-0.2 -2.5,-9.4 -7.2,-27.6 -0.5,2 -1.2,4.9 -2.3,8.7 -1,3.7 -1.9,7.2 -2.8,10.2 -0.7,3.2 -2.5,8.4 -3.2,11.1 z" />
        </g>
        <g
           id="g3570">
          <path
             style="fill:#ffffff"
             id="path3572"
             d="m 356.8,785.6 c 1.2,3.4 3.3,9.8 6.5,19.3 3.2,9.4 5.5,16.5 7,21.2 1.5,4.7 3.5,10.8 5.8,18.3 2.4,7.5 4.5,14.4 6.3,20.7 1.8,6.2 3.6,12.4 5.1,18.4 0.3,1.3 0,2.5 -0.9,3.6 -0.9,1.2 -2,1.8 -3.4,1.9 -8.2,0.5 -16.4,0.9 -24.7,1.2 -1.8,0 -3.1,-0.9 -3.6,-2.8 -1.3,-4 -2.6,-8.2 -4.1,-12.6 -9.6,0.1 -19.3,0.1 -29,0 -1.4,4.4 -2.7,8.6 -3.9,12.6 -0.6,1.8 -1.8,2.8 -3.8,2.8 -8.3,-0.3 -16.5,-0.7 -24.8,-1.2 -1.4,-0.1 -2.5,-0.7 -3.4,-1.9 -0.9,-1.2 -1.1,-2.4 -0.7,-3.6 1.6,-6 3.2,-12.2 5,-18.4 1.8,-6.2 3.9,-13.1 6.3,-20.7 2.4,-7.5 4.4,-13.6 5.9,-18.3 1.5,-4.7 3.8,-11.7 7,-21.2 3.2,-9.4 5.3,-15.9 6.3,-19.3 0.7,-1.9 2,-3 3.9,-3.1 11,-0.2 22,-0.2 33,0 2.3,0.1 3.6,1.2 4.2,3.1 z m -28.2,67.6 c 4.8,0 10,-2.4 14.9,-2.4 -0.1,-0.2 -2.5,-9.4 -7.2,-27.6 -0.5,2 -1.2,4.9 -2.3,8.7 -1,3.7 -1.9,7.2 -2.8,10.2 -0.7,3.1 -1.9,8.4 -2.6,11.1 z"
             class="st3" />
          <path
             style="fill:#ffffff"
             id="path3574"
             d="m 486.2,889 c 0.7,1.3 0.6,2.6 -0.2,4 -0.8,1.4 -2,2.2 -3.6,2.4 -9.3,0.7 -18.6,1.1 -27.9,1.3 -1.6,0 -2.7,-0.7 -3.5,-2.2 -4.7,-9.7 -10.9,-22.4 -18.8,-38.1 0,12.1 0.1,24.1 0.3,36.2 0,1.2 -0.4,2.1 -1.2,2.9 -0.8,0.8 -1.7,1.2 -2.8,1.2 -8.8,-0.3 -17.5,-0.7 -26.1,-1.3 -1.2,-0.1 -2.2,-0.6 -3,-1.5 -0.8,-0.9 -1.3,-1.8 -1.4,-2.9 -1.8,-32.1 -1.8,-64.2 0,-96.3 0.1,-1.2 0.6,-2.2 1.4,-3 0.8,-0.8 1.8,-1.3 3,-1.4 14.2,-1.1 28.4,-1.6 42.6,-1.5 10,0 18.3,3.1 25,9.2 7.1,6.5 10.8,15.2 10.9,26 0.1,8.4 -1.3,14.7 -4.2,19 -2.9,4.3 -7.2,7.6 -12.8,9.9 9.4,15.1 16.8,27.1 22.3,36.1 z m -53.9,-74 c -0.1,6.6 1.1,14.5 1.1,21.1 2.4,0 6.2,-1.3 8.6,-1.3 0,0 1.7,-0.9 3.2,-2.8 1.5,-1.9 2.2,-4.1 2.2,-6.7 0,-2.6 -0.8,-4.9 -2.3,-7.1 -1.5,-2.1 -3.4,-3.2 -5.6,-3.2 -2.5,0 -4.9,0 -7.2,0 z"
             class="st3" />
          <path
             style="fill:#ffffff"
             id="path3576"
             d="m 524,896.6 c -8.5,1.4 -17,1.4 -25.5,0 -1.1,-0.2 -2,-0.8 -2.8,-1.8 -0.8,-1 -1.2,-2 -1.2,-3.1 -0.7,-32.1 -0.7,-64.2 0,-96.3 0,-1.2 0.4,-2.2 1.2,-3.1 0.8,-0.9 1.8,-1.5 2.8,-1.7 8.6,-1.4 17.1,-1.4 25.5,0 1.1,0.2 2,0.8 2.8,1.7 0.8,0.9 1.2,2 1.2,3.1 0.7,32.1 0.7,64.2 0,96.3 0,1.1 -0.4,2.1 -1.2,3.1 -0.8,1 -1.8,1.6 -2.8,1.8 z"
             class="st3" />
          <path
             style="fill:#ffffff"
             id="path3578"
             d="m 610.5,792.2 c 1.2,3.4 3.3,9.8 6.5,19.3 3.2,9.4 5.5,16.5 7,21.2 1.5,4.7 3.5,10.8 5.8,18.3 2.4,7.5 4.5,14.4 6.3,20.7 1.8,6.2 3.6,12.4 5.1,18.4 0.3,1.3 0,2.5 -0.9,3.6 -0.9,1.2 -2,1.8 -3.4,1.9 -8.2,0.5 -16.4,0.9 -24.7,1.2 -1.9,0 -3.1,-0.9 -3.6,-2.8 -1.3,-4 -2.6,-8.2 -4.1,-12.6 -9.6,0.1 -19.3,0.1 -29,0 -1.4,4.4 -2.7,8.6 -3.9,12.6 -0.6,1.8 -1.9,2.8 -3.8,2.8 -8.3,-0.3 -16.5,-0.7 -24.8,-1.2 -1.4,-0.1 -2.5,-0.7 -3.4,-1.9 -0.9,-1.2 -1.1,-2.4 -0.7,-3.6 1.6,-6 3.2,-12.2 5,-18.4 1.8,-6.2 3.9,-13.1 6.3,-20.7 2.4,-7.5 4.4,-13.6 5.9,-18.3 1.5,-4.7 3.8,-11.7 7,-21.2 3.2,-9.4 5.3,-15.9 6.4,-19.3 0.7,-1.9 2,-3 3.9,-3.1 11,-0.2 22,-0.2 33,0 2.2,0.1 3.5,1.2 4.1,3.1 z m -28.8,67.6 c 4.8,0 10.7,-2.4 15.5,-2.4 -0.1,-0.2 -2.5,-9.4 -7.2,-27.6 -0.5,2 -1.2,4.9 -2.3,8.7 -1,3.7 -1.9,7.2 -2.8,10.2 -0.7,3.1 -2.5,8.4 -3.2,11.1 z"
             class="st3" />
        </g>
      </g>
      <g
         id="g3580">
        <path
           style="fill:#fafdfb"
           id="path3582"
           d="m 95.4,838.9 c -0.1,-10.2 0.8,-19.1 2.7,-28 4.8,-22.3 17,-33 39.7,-34.7 7,-0.5 14,-0.1 20.9,1.4 13.8,2.9 23.2,11 27.5,24.4 7.2,22.8 7.1,45.8 0.8,68.8 -1.8,6.6 -5.4,12.5 -10.9,16.8 -3.1,2.4 -2.9,4.3 -0.8,7.2 3.2,4.6 6,9.5 9,14.4 0.7,1.1 2.2,2.9 1.8,3.5 -3.3,4.9 -9.5,5.3 -14.1,8.2 -2.5,1.6 -3.6,-0.3 -4.7,-2.1 -3.4,-5.6 -7,-11.1 -10.2,-16.8 -1.8,-3.3 -3.6,-4.9 -7.9,-4.2 -7.2,1.2 -14.5,0.3 -21.5,-1.3 -18.2,-4 -27.8,-15.9 -30.7,-38.2 -1,-6.9 -1.9,-13.7 -1.6,-19.4 z m 20.2,-1 c -0.2,9.3 0.3,18.6 3.2,27.5 3.6,11.1 11.3,15.7 25.5,15.6 13.7,-0.2 21.3,-4.8 24.2,-16.2 4.6,-18 4.6,-36.3 -0.1,-54.3 -3.2,-12.3 -11.2,-17.5 -24.9,-17.4 -13.6,0 -21.3,5.3 -25,17.4 -2.6,8.9 -3.1,18.1 -2.9,27.4 z"
           class="st5" />
        <path
           style="fill:#fafdfb"
           id="path3584"
           d="m 215.1,848.8 c 0,-6.3 -0.2,-12.7 0.1,-19 0.2,-4.6 -1.1,-7 -6,-6.1 -6.7,1.3 -7.2,-2.5 -7.1,-7.7 0.1,-5.2 0,-9.7 7.3,-8.4 4.2,0.8 6.2,-0.9 5.8,-5.5 -0.4,-4.3 0.3,-8.6 -0.2,-12.9 -0.6,-5.7 1.8,-6.7 6.9,-6.6 12,0.3 12,0 12,12.2 0,12.8 0,12.8 12.7,12.8 0.5,0 0.9,0 1.4,0 9,0 12.8,5.5 9.6,13.9 -0.5,1.2 -1.1,1.9 -2.4,1.9 -1.4,0.1 -2.7,0 -4.1,0.1 -5.6,0.5 -12.9,-2.5 -16.2,1.3 -2.7,3.3 -1,10.3 -1,15.7 0,9 -0.2,18.1 0.2,27.1 0.4,9.5 2.6,11.3 12.2,11 0.7,0 1.4,0 2,-0.1 8.7,-0.3 12,3.8 9.9,12.6 -0.4,1.6 -1.1,2.3 -2.6,2.6 -8.3,1.4 -16.5,2.4 -24.9,0.7 -9.1,-1.9 -13,-8.2 -14.5,-16.7 -1.6,-9.4 -1,-19.1 -1.1,-28.9 z"
           class="st5" />
      </g>
    </g>
  </g>
</svg>
